<?xml version="1.0" encoding="utf-8"?>
<!-- Generator: Adobe Illustrator 21.1.0, SVG Export Plug-In . SVG Version: 6.00 Build 0)  -->
<svg version="1.1" id="Layer_1" xmlns="http://www.w3.org/2000/svg" xmlns:xlink="http://www.w3.org/1999/xlink" x="0px" y="0px"
	 viewBox="0 0 850.4 350" style="enable-background:new 0 0 850.4 350;" xml:space="preserve">
<style type="text/css">
	.st0{fill:#FFFFFF;}
	.st1{fill:#F5C814;}
	.st2{fill:#BEBEBE;}
</style>
<g>
	<path class="st0" d="M723.5,8.1c0,0-119.5,40.8-119.5,99.1c0,4.4,0,9.4,0,14.8c0-54.4,119.5-92.5,119.5-92.5S843,67.6,843,122.1
		c0-5.5,0-10.4,0-14.8C843,48.9,723.5,8.1,723.5,8.1z"/>
	<circle class="st1" cx="723.4" cy="125" r="29.8"/>
	<path class="st0" d="M723.5,50c0,0-119.5,35.5-119.5,86.2c0,50.7,0,193.3,0,193.3h119.5H843c0,0,0-142.5,0-193.3
		C843,85.5,723.5,50,723.5,50z M629.9,306.6V199.8c2.6-0.4,5.2-0.8,7.8-1.1v95.8l5.5,0.1c19.9,0.5,40.8,5.1,60.3,10.5
		C677.8,303.3,653,303.2,629.9,306.6z M720.4,304.8c-26.9-8.2-53.1-14.6-77-15.2V182.8c22.9,0,49.5,6.8,77,15.2V304.8z M723.4,173.2
		l-14.1-14.1h-20v-20L675.2,125l14.1-14.1v-20h20l14.1-14.1l14.1,14.1h20v20l14.1,14.1l-14.1,14.1v20h-20L723.4,173.2z M726.1,198
		c27.5-8.4,54.1-15.2,77-15.2v106.8c-23.9,0.6-50.1,6.9-77,15.2V198z M817,306.6c-23.3-3.4-48.3-3.2-74.2-1.4
		c19.6-5.5,40.5-10,60.5-10.6l5.5-0.1v-95.8c2.8,0.3,5.5,0.7,8.2,1.2V306.6z"/>
</g>
<g>
	<g>
		<path class="st0" d="M338.4,108.9v8.7h-10v27.1h-9.7v-27.1h-10v-8.7H338.4z"/>
		<path class="st0" d="M349.7,137l-2.6,7.7h-10.5l13.5-35.7h10.7l13.5,35.7H364l-2.6-7.7H349.7z M355.5,118.8l-3.3,10.5h6.6
			L355.5,118.8z"/>
		<path class="st0" d="M393.7,144.6H385l-11.7-35.7h10.5l6.1,21.7l6.4-21.7h8.2l6.4,21.7l6.1-21.7h10.5l-11.7,35.7h-8.7l-6.6-20.7
			L393.7,144.6z"/>
		<path class="st0" d="M464.6,144.6h-9.7v-13.8h-13v13.8h-9.7v-35.7h9.7v13.3h13v-13.3h9.7V144.6z"/>
		<path class="st0" d="M473.5,108.9h9.7v35.7h-9.7V108.9z"/>
		<path class="st0" d="M492.1,108.9h9.7v35.7h-9.7V108.9z"/>
		<path class="st0" d="M524.4,108.9c2.8,0,5.3,0.5,7.6,1.4c2.3,0.9,4.3,2.2,6,3.8c1.7,1.6,3,3.5,3.9,5.7c0.9,2.2,1.4,4.5,1.4,7
			c0,2.5-0.5,4.8-1.4,7c-0.9,2.2-2.2,4.1-3.9,5.7c-1.7,1.6-3.7,2.9-6,3.8c-2.3,0.9-4.8,1.4-7.6,1.4h-13.8v-35.7H524.4z M520.4,117.6
			V136h4.1c1.2,0,2.4-0.2,3.5-0.7c1.1-0.5,2.1-1.1,2.9-1.9c0.8-0.8,1.5-1.8,2-2.9c0.5-1.1,0.8-2.3,0.8-3.7c0-1.3-0.2-2.6-0.7-3.7
			c-0.5-1.1-1.1-2.1-1.9-2.9c-0.8-0.8-1.8-1.5-2.9-1.9c-1.1-0.5-2.3-0.7-3.7-0.7H520.4z"/>
		<path class="st0" d="M50.9,167.7h9.7v35.7h-9.7V167.7z"/>
		<path class="st0" d="M84.4,192.5c0-0.8-0.4-1.5-1.2-1.9c-0.8-0.5-1.8-0.9-3.1-1.3c-1.2-0.4-2.6-0.9-4-1.3c-1.4-0.5-2.8-1.1-4-1.9
			c-1.2-0.8-2.2-1.9-3.1-3.2c-0.8-1.3-1.2-3-1.2-5.1c0-1.4,0.3-2.8,1-4.1c0.6-1.3,1.6-2.5,2.7-3.5c1.2-1,2.6-1.8,4.3-2.5
			c1.7-0.6,3.5-0.9,5.6-0.9c2.2,0,4.1,0.3,5.6,0.8c1.6,0.5,2.9,1.1,3.9,1.8c1.2,0.7,2.2,1.6,3,2.6l-5.6,5.9c-0.5-0.5-1-1-1.6-1.4
			c-0.5-0.4-1.1-0.7-1.8-1c-0.7-0.3-1.5-0.4-2.4-0.4c-1.2,0-2.1,0.3-2.8,0.9c-0.7,0.6-1,1.3-1,2.1c0,0.8,0.4,1.5,1.2,1.9
			c0.8,0.5,1.8,0.9,3.1,1.3s2.6,0.9,4,1.3c1.4,0.5,2.8,1.1,4,1.9c1.2,0.8,2.2,1.9,3.1,3.2c0.8,1.3,1.2,3,1.2,5.1
			c0,1.6-0.3,3.1-1,4.5c-0.6,1.4-1.6,2.7-2.8,3.7s-2.7,1.9-4.5,2.6c-1.8,0.6-3.8,0.9-6,0.9c-2.4,0-4.5-0.3-6.2-0.9
			c-1.8-0.6-3.3-1.3-4.4-2.1c-1.4-0.9-2.6-1.9-3.6-3.1l5.6-5.9c0.6,0.7,1.3,1.4,2.1,1.9c0.7,0.5,1.5,0.9,2.4,1.3
			c0.9,0.4,2,0.6,3.1,0.6c1.4,0,2.6-0.4,3.4-1.1C84,194.4,84.4,193.5,84.4,192.5z"/>
		<path class="st0" d="M101.7,203.4v-35.7h9.7v27.1h15.8v8.7H101.7z"/>
		<path class="st0" d="M143.4,195.8l-2.6,7.7h-10.5l13.5-35.7h10.7l13.5,35.7h-10.5l-2.6-7.7H143.4z M149.2,177.7l-3.3,10.5h6.6
			L149.2,177.7z"/>
		<path class="st0" d="M182.4,182.3v21.2h-9.7v-35.7h8.7l11,14l11-14h8.7v35.7h-9.7v-21.2l-10,12.5L182.4,182.3z"/>
		<path class="st0" d="M220.9,167.7h9.7v35.7h-9.7V167.7z"/>
		<path class="st0" d="M247.1,185.6c0,1.5,0.3,2.8,0.8,4.1c0.5,1.2,1.2,2.3,2.1,3.2c0.9,0.9,2,1.6,3.2,2.1c1.2,0.5,2.6,0.8,4.1,0.8
			c1.5,0,2.9-0.2,4.1-0.7c1.2-0.5,2.2-1,3.1-1.6c1-0.6,1.8-1.4,2.6-2.3l5.6,6.1c-1,1.3-2.3,2.5-3.7,3.6c-1.3,0.9-2.9,1.7-4.8,2.5
			c-1.9,0.7-4.2,1.1-6.8,1.1c-2.8,0-5.4-0.5-7.9-1.5c-2.4-1-4.5-2.4-6.3-4.1c-1.8-1.7-3.2-3.7-4.2-6c-1-2.3-1.5-4.7-1.5-7.2
			c0-2.6,0.5-5,1.5-7.2c1-2.3,2.4-4.3,4.2-6c1.8-1.7,3.9-3.1,6.3-4.1c2.4-1,5-1.5,7.9-1.5c2.6,0,4.8,0.4,6.6,1.1
			c1.9,0.7,3.4,1.6,4.7,2.5c1.5,1.1,2.7,2.2,3.7,3.6l-5.9,6.1c-0.7-0.9-1.5-1.6-2.4-2.3c-0.8-0.6-1.7-1.1-2.9-1.6
			c-1.1-0.5-2.4-0.7-3.9-0.7c-1.5,0-2.8,0.3-4.1,0.8c-1.2,0.5-2.3,1.2-3.2,2.1c-0.9,0.9-1.6,2-2.1,3.2
			C247.3,182.8,247.1,184.1,247.1,185.6z"/>
		<path class="st0" d="M323.9,167.7v35.7h-8.4l-15.4-19.9v19.9h-9.7v-35.7h8.4l15.3,19.9v-19.9H323.9z"/>
		<path class="st0" d="M348.9,195.8c0.9,0,1.7-0.2,2.5-0.5c0.8-0.4,1.5-0.9,2.1-1.5c0.6-0.6,1.1-1.4,1.5-2.3
			c0.4-0.9,0.5-1.8,0.5-2.8v-20.9h9.7v20.9c0,2.2-0.4,4.3-1.2,6.3c-0.8,1.9-1.9,3.6-3.4,5c-1.4,1.4-3.2,2.5-5.2,3.3
			c-2,0.8-4.2,1.2-6.5,1.2c-2.3,0-4.5-0.4-6.5-1.2c-2-0.8-3.7-1.9-5.2-3.3c-1.4-1.4-2.6-3.1-3.4-5c-0.8-1.9-1.2-4-1.2-6.3v-20.9h9.7
			v20.9c0,1,0.2,2,0.5,2.8c0.4,0.9,0.8,1.6,1.5,2.3c0.6,0.6,1.3,1.1,2.1,1.5C347.2,195.6,348,195.8,348.9,195.8z"/>
		<path class="st0" d="M373.9,167.7h16.8c1.9,0,3.7,0.3,5.3,0.9c1.6,0.6,3,1.5,4.1,2.6c1.1,1.1,2,2.4,2.7,3.9c0.6,1.5,1,3.1,1,4.8
			c0,1.9-0.3,3.6-0.9,4.9c-0.6,1.3-1.3,2.4-2.1,3.2c-0.9,1-1.9,1.8-3.1,2.3l7.4,13h-10.2l-6.1-11.2h-5.1v11.2h-9.7V167.7z M394,180
			c0-1-0.3-1.9-1-2.6c-0.7-0.7-1.6-1-2.8-1h-6.6v7.1h6.6c1.2,0,2.1-0.3,2.8-1C393.7,181.8,394,181,394,180z"/>
		<path class="st0" d="M426,192.5c0-0.8-0.4-1.5-1.2-1.9c-0.8-0.5-1.8-0.9-3.1-1.3c-1.2-0.4-2.6-0.9-4-1.3c-1.4-0.5-2.8-1.1-4-1.9
			s-2.2-1.9-3.1-3.2c-0.8-1.3-1.2-3-1.2-5.1c0-1.4,0.3-2.8,1-4.1c0.6-1.3,1.6-2.5,2.7-3.5c1.2-1,2.6-1.8,4.3-2.5
			c1.7-0.6,3.5-0.9,5.6-0.9c2.2,0,4.1,0.3,5.6,0.8c1.6,0.5,2.9,1.1,3.9,1.8c1.2,0.7,2.2,1.6,3,2.6l-5.6,5.9c-0.5-0.5-1-1-1.6-1.4
			c-0.5-0.4-1.1-0.7-1.8-1c-0.7-0.3-1.5-0.4-2.4-0.4c-1.2,0-2.1,0.3-2.8,0.9c-0.7,0.6-1,1.3-1,2.1c0,0.8,0.4,1.5,1.2,1.9
			s1.8,0.9,3.1,1.3c1.2,0.4,2.6,0.9,4,1.3c1.4,0.5,2.8,1.1,4,1.9c1.2,0.8,2.2,1.9,3.1,3.2c0.8,1.3,1.2,3,1.2,5.1
			c0,1.6-0.3,3.1-1,4.5c-0.6,1.4-1.6,2.7-2.8,3.7c-1.2,1.1-2.7,1.9-4.5,2.6c-1.8,0.6-3.8,0.9-6,0.9c-2.4,0-4.5-0.3-6.2-0.9
			c-1.8-0.6-3.3-1.3-4.4-2.1c-1.4-0.9-2.6-1.9-3.6-3.1l5.6-5.9c0.6,0.7,1.3,1.4,2.1,1.9c0.7,0.5,1.5,0.9,2.4,1.3
			c0.9,0.4,2,0.6,3.1,0.6c1.4,0,2.6-0.4,3.4-1.1S426,193.5,426,192.5z"/>
		<path class="st0" d="M471.4,195.3v8.2h-28.1v-35.7h27.6v8.2H453v5.6h13.8v7.7H453v6.1H471.4z"/>
		<path class="st0" d="M478.7,167.7h16.8c1.9,0,3.7,0.3,5.3,0.9c1.6,0.6,3,1.5,4.1,2.6c1.1,1.1,2,2.4,2.7,3.9c0.6,1.5,1,3.1,1,4.8
			c0,1.9-0.3,3.6-0.9,4.9c-0.6,1.3-1.3,2.4-2.1,3.2c-0.9,1-1.9,1.8-3.1,2.3l7.4,13h-10.2l-6.1-11.2h-5.1v11.2h-9.7V167.7z
			 M498.8,180c0-1-0.3-1.9-1-2.6c-0.7-0.7-1.6-1-2.8-1h-6.6v7.1h6.6c1.2,0,2.1-0.3,2.8-1C498.5,181.8,498.8,181,498.8,180z"/>
		<path class="st0" d="M545.4,167.7l-12.8,23v12.8h-9.7v-12.8l-12.8-23h10.5l7.1,13.8l7.1-13.8H545.4z"/>
		<path class="st0" d="M35.3,254.1c0.2,0.3,0.4,0.5,0.7,0.7c0.2,0.2,0.5,0.3,0.8,0.4c0.3,0.1,0.6,0.2,1,0.2c0.2,0,0.5,0,0.9-0.1
			c0.1,0,0.3-0.1,0.4-0.2v7.1c-0.4,0.2-0.8,0.4-1.2,0.5c-0.4,0.1-0.8,0.3-1.3,0.4c-0.5,0.1-1,0.2-1.6,0.2c-1,0-1.9-0.2-2.8-0.5
			c-0.8-0.4-1.5-0.8-2.1-1.3c-0.7-0.5-1.3-1.1-1.8-1.8c-0.6,0.7-1.4,1.3-2.3,1.8c-0.8,0.5-1.7,0.9-2.9,1.3c-1.1,0.4-2.5,0.5-4,0.5
			c-1.8,0-3.4-0.3-4.9-0.8c-1.4-0.5-2.7-1.3-3.7-2.2s-1.8-2-2.3-3.2c-0.5-1.2-0.8-2.5-0.8-3.8c0-1.7,0.3-3.1,1-4.4
			c0.7-1.3,1.5-2.3,2.4-3.2c1-1,2.2-1.9,3.5-2.6c-0.9-0.8-1.6-1.7-2.2-2.6c-0.5-0.8-1-1.7-1.5-2.7c-0.4-1-0.7-2-0.7-3.1
			c0-1.2,0.3-2.4,0.8-3.5c0.5-1.1,1.2-2.1,2.1-2.9c0.9-0.8,2-1.5,3.2-2c1.2-0.5,2.6-0.8,4.1-0.8c1.5,0,2.9,0.2,4.2,0.7
			c1.3,0.5,2.4,1.2,3.3,2c0.9,0.8,1.7,1.8,2.2,2.9s0.8,2.2,0.8,3.3c0,1.3-0.3,2.5-0.9,3.5c-0.6,1.1-1.3,2-2,2.8
			c-0.9,0.9-1.9,1.7-2.9,2.4l4.1,4.8c0.2-0.3,0.4-0.7,0.6-1.1c0.2-0.3,0.3-0.7,0.5-1.2c0.1-0.5,0.2-1,0.2-1.6h8.2
			c0,1.5-0.2,2.9-0.5,4.1c-0.3,1.2-0.7,2.3-1,3.1C36.4,252.4,35.9,253.3,35.3,254.1z M20,256.1c0.6,0,1.2-0.1,1.7-0.3
			c0.5-0.2,0.9-0.4,1.3-0.6c0.4-0.3,0.8-0.6,1.1-0.9l-4.8-5.9c-0.5,0.4-1,0.8-1.4,1.2c-0.4,0.4-0.7,0.8-1,1.4
			c-0.3,0.5-0.4,1.1-0.4,1.8c0,1,0.3,1.8,0.9,2.4C17.9,255.8,18.8,256.1,20,256.1z M22.8,235.2c0-0.8-0.2-1.4-0.7-1.9
			c-0.5-0.5-1.1-0.7-1.9-0.7c-0.8,0-1.4,0.2-1.9,0.7c-0.5,0.5-0.7,1.1-0.7,1.9c0,0.5,0.1,1,0.4,1.5c0.3,0.5,0.6,0.9,0.9,1.3
			c0.4,0.4,0.8,0.9,1.3,1.3c0.5-0.4,0.9-0.8,1.3-1.3c0.3-0.4,0.6-0.8,0.9-1.3C22.7,236.2,22.8,235.7,22.8,235.2z"/>
		<path class="st0" d="M73.1,226.5c2,0,3.8,0.3,5.4,0.9c1.6,0.6,3,1.5,4.2,2.6c1.2,1.1,2.1,2.5,2.7,4c0.6,1.5,1,3.2,1,5
			c0,1.8-0.3,3.5-1,5c-0.6,1.5-1.5,2.8-2.7,4c-1.2,1.1-2.6,2-4.2,2.6c-1.6,0.6-3.4,0.9-5.4,0.9h-6.4v10.7H57v-35.7H73.1z
			 M66.7,235.2v7.7h5.9c1.2,0,2.1-0.4,2.9-1.1c0.8-0.8,1.2-1.7,1.2-2.7c0-1-0.4-1.9-1.2-2.7c-0.8-0.8-1.8-1.1-2.9-1.1H66.7z"/>
		<path class="st0" d="M92.5,226.5h16.8c1.9,0,3.7,0.3,5.3,0.9c1.6,0.6,3,1.5,4.1,2.6c1.1,1.1,2,2.4,2.7,3.9s1,3.1,1,4.8
			c0,1.9-0.3,3.6-0.9,4.9c-0.6,1.3-1.3,2.4-2.1,3.2c-0.9,1-1.9,1.8-3.1,2.3l7.4,13h-10.2l-6.1-11.2h-5.1v11.2h-9.7V226.5z
			 M112.7,238.8c0-1-0.3-1.9-1-2.6c-0.7-0.7-1.6-1-2.8-1h-6.6v7.1h6.6c1.2,0,2.1-0.3,2.8-1C112.3,240.7,112.7,239.8,112.7,238.8z"/>
		<path class="st0" d="M129.9,226.5h9.7v35.7h-9.7V226.5z"/>
		<path class="st0" d="M158.2,241.1v21.2h-9.7v-35.7h8.7l11,14l11-14h8.7v35.7h-9.7v-21.2l-10,12.5L158.2,241.1z"/>
		<path class="st0" d="M205.4,254.6l-2.6,7.7h-10.5l13.5-35.7h10.7l13.5,35.7h-10.5l-2.6-7.7H205.4z M211.2,236.5l-3.3,10.5h6.6
			L211.2,236.5z"/>
		<path class="st0" d="M234.7,226.5h16.8c1.9,0,3.7,0.3,5.3,0.9c1.6,0.6,3,1.5,4.1,2.6c1.1,1.1,2,2.4,2.7,3.9c0.6,1.5,1,3.1,1,4.8
			c0,1.9-0.3,3.6-0.9,4.9c-0.6,1.3-1.3,2.4-2.1,3.2c-0.9,1-1.9,1.8-3.1,2.3l7.4,13h-10.2l-6.1-11.2h-5.1v11.2h-9.7V226.5z
			 M254.8,238.8c0-1-0.3-1.9-1-2.6c-0.7-0.7-1.6-1-2.8-1h-6.6v7.1h6.6c1.2,0,2.1-0.3,2.8-1C254.5,240.7,254.8,239.8,254.8,238.8z"/>
		<path class="st0" d="M301.4,226.5l-12.8,23v12.8h-9.7v-12.8l-12.8-23h10.5l7.1,13.8l7.1-13.8H301.4z"/>
		<path class="st0" d="M333,251.3c0-0.8-0.4-1.5-1.2-1.9c-0.8-0.5-1.8-0.9-3.1-1.3c-1.2-0.4-2.6-0.9-4-1.3c-1.4-0.5-2.8-1.1-4-1.9
			c-1.2-0.8-2.2-1.9-3.1-3.2c-0.8-1.3-1.2-3-1.2-5.1c0-1.4,0.3-2.8,1-4.1c0.6-1.3,1.6-2.5,2.7-3.5c1.2-1,2.6-1.8,4.3-2.5
			c1.7-0.6,3.5-0.9,5.6-0.9c2.2,0,4.1,0.3,5.6,0.8c1.6,0.5,2.9,1.1,3.9,1.8c1.2,0.7,2.2,1.6,3,2.6l-5.6,5.9c-0.5-0.5-1-1-1.6-1.4
			c-0.5-0.4-1.1-0.7-1.8-1c-0.7-0.3-1.5-0.4-2.4-0.4c-1.2,0-2.1,0.3-2.8,0.9c-0.7,0.6-1,1.3-1,2.1c0,0.8,0.4,1.5,1.2,1.9
			s1.8,0.9,3.1,1.3c1.2,0.4,2.6,0.9,4,1.3c1.4,0.5,2.8,1.1,4,1.9c1.2,0.8,2.2,1.9,3.1,3.2c0.8,1.3,1.2,3,1.2,5.1
			c0,1.6-0.3,3.1-1,4.5c-0.6,1.4-1.6,2.7-2.8,3.7c-1.2,1.1-2.7,1.9-4.5,2.6c-1.8,0.6-3.8,0.9-6,0.9c-2.4,0-4.5-0.3-6.2-0.9
			c-1.8-0.6-3.3-1.3-4.4-2.1c-1.4-0.9-2.6-1.9-3.6-3.1l5.6-5.9c0.6,0.7,1.3,1.4,2.1,1.9c0.7,0.5,1.5,0.9,2.4,1.3
			c0.9,0.4,2,0.6,3.1,0.6c1.4,0,2.6-0.4,3.4-1.1C332.6,253.2,333,252.3,333,251.3z"/>
		<path class="st0" d="M357.5,244.4c0,1.5,0.3,2.8,0.8,4.1c0.5,1.2,1.2,2.3,2.1,3.2c0.9,0.9,2,1.6,3.2,2.1c1.2,0.5,2.6,0.8,4.1,0.8
			c1.5,0,2.9-0.2,4.1-0.7c1.2-0.5,2.2-1,3.1-1.6c1-0.6,1.8-1.4,2.6-2.3l5.6,6.1c-1,1.3-2.3,2.5-3.7,3.6c-1.3,0.9-2.9,1.7-4.8,2.5
			c-1.9,0.7-4.2,1.1-6.8,1.1c-2.8,0-5.4-0.5-7.9-1.5c-2.4-1-4.5-2.4-6.3-4.1c-1.8-1.7-3.2-3.7-4.2-6c-1-2.3-1.5-4.7-1.5-7.2
			c0-2.6,0.5-5,1.5-7.2c1-2.3,2.4-4.3,4.2-6c1.8-1.7,3.9-3.1,6.3-4.1c2.4-1,5-1.5,7.9-1.5c2.6,0,4.8,0.4,6.6,1.1
			c1.9,0.7,3.4,1.6,4.7,2.5c1.5,1.1,2.7,2.2,3.7,3.6l-5.9,6.1c-0.7-0.9-1.5-1.6-2.4-2.3c-0.8-0.6-1.7-1.1-2.9-1.6
			c-1.1-0.5-2.4-0.7-3.9-0.7c-1.5,0-2.8,0.3-4.1,0.8c-1.2,0.5-2.3,1.2-3.2,2.1c-0.9,0.9-1.6,2-2.1,3.2
			C357.7,241.6,357.5,242.9,357.5,244.4z"/>
		<path class="st0" d="M421.1,262.3h-9.7v-13.8h-13v13.8h-9.7v-35.7h9.7v13.3h13v-13.3h9.7V262.3z"/>
		<path class="st0" d="M467.7,244.4c0,2.6-0.5,5-1.5,7.2c-1,2.3-2.4,4.3-4.2,6c-1.8,1.7-3.9,3.1-6.3,4.1c-2.4,1-5,1.5-7.8,1.5
			c-2.8,0-5.4-0.5-7.9-1.5c-2.4-1-4.5-2.4-6.3-4.1c-1.8-1.7-3.2-3.7-4.2-6c-1-2.3-1.5-4.7-1.5-7.2c0-2.6,0.5-5,1.5-7.2
			c1-2.3,2.4-4.3,4.2-6c1.8-1.7,3.9-3.1,6.3-4.1c2.4-1,5-1.5,7.9-1.5c2.8,0,5.4,0.5,7.8,1.5c2.4,1,4.5,2.4,6.3,4.1
			c1.8,1.7,3.2,3.7,4.2,6C467.1,239.4,467.7,241.8,467.7,244.4z M437.8,244.4c0,1.5,0.3,2.8,0.8,4.1c0.5,1.2,1.2,2.3,2.1,3.2
			c0.9,0.9,1.9,1.6,3.2,2.1c1.2,0.5,2.5,0.8,3.9,0.8c1.4,0,2.7-0.3,3.9-0.8c1.2-0.5,2.3-1.2,3.2-2.1c0.9-0.9,1.6-2,2.1-3.2
			c0.5-1.2,0.8-2.6,0.8-4.1c0-1.5-0.3-2.8-0.8-4.1c-0.5-1.2-1.2-2.3-2.1-3.2c-0.9-0.9-2-1.6-3.2-2.1c-1.2-0.5-2.5-0.8-3.9-0.8
			c-1.4,0-2.7,0.3-3.9,0.8c-1.2,0.5-2.3,1.2-3.2,2.1c-0.9,0.9-1.6,2-2.1,3.2C438.1,241.6,437.8,242.9,437.8,244.4z"/>
		<path class="st0" d="M512.1,244.4c0,2.6-0.5,5-1.5,7.2c-1,2.3-2.4,4.3-4.2,6c-1.8,1.7-3.9,3.1-6.3,4.1c-2.4,1-5,1.5-7.8,1.5
			c-2.8,0-5.4-0.5-7.9-1.5c-2.4-1-4.5-2.4-6.3-4.1c-1.8-1.7-3.2-3.7-4.2-6c-1-2.3-1.5-4.7-1.5-7.2c0-2.6,0.5-5,1.5-7.2
			c1-2.3,2.4-4.3,4.2-6c1.8-1.7,3.9-3.1,6.3-4.1c2.4-1,5-1.5,7.9-1.5c2.8,0,5.4,0.5,7.8,1.5c2.4,1,4.5,2.4,6.3,4.1
			c1.8,1.7,3.2,3.7,4.2,6C511.5,239.4,512.1,241.8,512.1,244.4z M482.2,244.4c0,1.5,0.3,2.8,0.8,4.1c0.5,1.2,1.2,2.3,2.1,3.2
			c0.9,0.9,1.9,1.6,3.2,2.1c1.2,0.5,2.5,0.8,3.9,0.8c1.4,0,2.7-0.3,3.9-0.8c1.2-0.5,2.3-1.2,3.2-2.1c0.9-0.9,1.6-2,2.1-3.2
			c0.5-1.2,0.8-2.6,0.8-4.1c0-1.5-0.3-2.8-0.8-4.1c-0.5-1.2-1.2-2.3-2.1-3.2c-0.9-0.9-2-1.6-3.2-2.1c-1.2-0.5-2.5-0.8-3.9-0.8
			c-1.4,0-2.7,0.3-3.9,0.8c-1.2,0.5-2.3,1.2-3.2,2.1c-0.9,0.9-1.6,2-2.1,3.2C482.4,241.6,482.2,242.9,482.2,244.4z"/>
		<path class="st0" d="M518.8,262.3v-35.7h9.7v27.1h15.8v8.7H518.8z"/>
	</g>
</g>
<g>
	<g>
		<path class="st2" d="M152.1,325.3h3.8l5.9-25.3h-4.3l0.9-4.1h24.8l-2.1,8.8h-4.4l1.1-4.7h-11.3l-2.5,10.4h10.5l-0.9,4h-10.4
			l-2.6,11h11.3l1.2-4.7h4.4l-2,8.8h-24.3L152.1,325.3z"/>
		<path class="st2" d="M193.5,307c3.3,0,5.8,2.4,6.6,5.1l3.7-16.2h-4.1l0.9-3.8h8.5L202,323c-0.2,1-0.4,1.7-0.4,2.2
			c0,1,0.4,1.5,1.3,1.5s1.8-0.8,2.9-3.6l2,0.7c-1.3,4.4-3.7,5.9-6.1,5.9c-2.7,0-4.3-1.8-4.3-4.5v-0.2c-1.8,2.7-4.5,4.7-7.8,4.7
			c-4.4,0-7.6-3.5-7.6-8.8C182,313.5,187.3,307,193.5,307z M199.2,316.4c0-3.3-1.8-5.5-5.1-5.5c-4.3,0-7.5,4.6-7.5,9.6
			c0,3.2,1.7,5.5,4.7,5.5C195.8,326,199.2,321.3,199.2,316.4z"/>
		<path class="st2" d="M220,307.4l-3.4,13.3c-0.2,0.7-0.3,1.5-0.3,2.2c0,1.9,1.2,3.1,3.1,3.1c2.9,0,5.4-2.3,6.5-6.7l3-11.9h4.5
			l-3.9,15.6c-0.2,0.9-0.4,1.7-0.4,2.2c0,1,0.5,1.5,1.3,1.5c0.9,0,1.8-0.8,2.9-3.6l2,0.7c-1.3,4.4-3.7,5.9-6.1,5.9
			c-2.6,0-4.2-1.8-4.2-4.5v-0.5c-1.8,3-4.5,5.1-7.5,5.1c-3.1,0-5.7-2.2-5.7-5.8c0-1.1,0.2-2.4,0.5-3.7l2.3-9.1h-4.1l1-3.8H220z"/>
		<path class="st2" d="M238,320.1c0-7,5.8-13.1,12.8-13.1c4.9,0,8.1,3,8.1,6.2c0,1.9-1.2,3.5-3,3.5c-1.4,0-2.6-1.1-2.6-2.7
			c0-0.7,0.4-1.5,0.9-1.9c-0.7-0.8-1.9-1.2-3.5-1.2c-4,0-8.2,3.4-8.2,9c0,3.8,2.6,6.3,6.3,6.3c2.6,0,5.2-1,7.4-2.8l-0.1,4.1
			c-2.1,1.5-4.8,2.4-7.7,2.4C242.5,329.9,238,326.2,238,320.1z"/>
		<path class="st2" d="M261.6,321.1c0-7.5,5.2-14,11.6-14c3.3,0,5.8,2.4,6.6,5.2l1.4-4.9h4.2l-3.9,15.7c-0.3,0.9-0.4,1.7-0.4,2.2
			c0,1,0.5,1.5,1.3,1.5c0.8,0,1.8-0.8,2.9-3.6l2,0.7c-1.3,4.4-3.6,5.9-6.1,5.9c-2.6,0-4.2-1.8-4.2-4.4v-0.3
			c-1.9,2.6-4.5,4.7-7.9,4.7C264.7,329.9,261.6,326.4,261.6,321.1z M278.7,316.4c0-3.3-1.6-5.4-5-5.4c-4.3,0-7.5,4.6-7.5,9.6
			c0,3.2,1.6,5.5,4.6,5.5C275.4,326,278.7,321.2,278.7,316.4z"/>
		<path class="st2" d="M298.7,311.2l-2.8,11.3c-0.2,0.8-0.3,1.5-0.3,1.9c0,1.2,0.7,1.9,1.7,1.9c1.2,0,2.2-0.5,4.4-1.9l1.6,2.1
			c-2.9,2.5-5.3,3.3-7.4,3.3c-2.7,0-4.8-1.5-4.8-4.6c0-0.8,0.2-1.6,0.4-2.7l2.8-11.3h-4l0.9-3.8h4l1.3-5l4.9-1.7l-1.7,6.7h6.7
			l-1,3.8H298.7z"/>
		<path class="st2" d="M309.1,325.4c0-0.7,0.2-1.6,0.4-2.4l3.1-11.7h-4.1l1-3.8h8.6l-4.1,15.6c-0.3,0.9-0.4,1.7-0.4,2.2
			c0,1,0.5,1.5,1.3,1.5c1,0,1.9-0.8,3-3.6l2,0.7c-1.3,4.4-3.5,5.9-6.2,5.9C310.7,329.8,309.1,328,309.1,325.4z M313.4,300.8
			c0-1.6,1.3-3,3-3c1.6,0,3,1.3,3,3s-1.4,3-3,3C314.7,303.7,313.4,302.4,313.4,300.8z"/>
		<path class="st2" d="M322.8,320.1c0-6.7,5.3-13.1,12.5-13.1c6.3,0,9.9,4.5,9.9,9.8c0,6.7-5.3,13-12.5,13
			C326.3,329.9,322.8,325.3,322.8,320.1z M340.6,316.8c0-3.8-2.5-6-5.6-6c-4.3,0-7.8,4.1-7.8,9.3c0,3.8,2.5,6,5.6,6
			C337.2,326.1,340.6,321.9,340.6,316.8z"/>
		<path class="st2" d="M362.7,325.4c0-0.7,0.2-1.7,0.4-2.5l1.9-6.6c0.3-0.9,0.4-1.5,0.4-2.2c0-1.9-1.3-3.2-3.3-3.2
			c-2.7,0-5.3,2.3-6.4,6.7l-3,11.9h-4.5l4.6-18.2h-4.1l1-3.8h7.9l-1.2,5.2c1.7-3.1,4.6-5.5,7.6-5.5c3.4,0,6,2.3,6,6.2
			c0,1.1-0.2,2.3-0.6,3.6l-1.9,6.5c-0.2,0.7-0.3,1.4-0.3,1.8c0,1,0.5,1.6,1.4,1.6c0.9,0,1.8-0.8,2.9-3.6l2,0.7c-1.2,4-3.3,5.9-6,5.9
			C364.4,329.8,362.7,328,362.7,325.4z"/>
		<path class="st2" d="M388.4,325.4c0-0.7,0.2-1.6,0.4-2.4l3.1-11.7h-4.1l1-3.8h8.6l-4.1,15.6c-0.3,0.9-0.4,1.7-0.4,2.2
			c0,1,0.5,1.5,1.3,1.5c1,0,1.9-0.8,3-3.6l2,0.7c-1.3,4.4-3.5,5.9-6.2,5.9C390,329.8,388.4,328,388.4,325.4z M392.7,300.8
			c0-1.6,1.3-3,3-3c1.6,0,3,1.3,3,3s-1.4,3-3,3C394,303.7,392.7,302.4,392.7,300.8z"/>
		<path class="st2" d="M403.3,327c-0.9-0.9-1.4-1.8-1.4-2.9c0-1.6,1.1-2.9,2.6-2.9c1.4,0,2.5,1.1,2.5,2.5c0,0.5-0.2,1.1-0.5,1.4
			c0.2,0.2,0.5,0.4,0.8,0.6c1,0.5,2.5,0.9,4.1,0.9c2.3,0,4.2-0.9,4.2-2.7c0-1.8-2.2-2.8-4.6-3.8c-3.1-1.4-6-2.9-6-6.4
			c0-3.5,3-6.6,8.5-6.6c3,0,5.6,1,7,2.5c0.8,0.8,1.3,1.8,1.3,2.9c0,1.7-1.2,2.8-2.6,2.8c-1.4,0-2.5-1.1-2.5-2.5
			c0-0.5,0.1-0.8,0.5-1.4c-0.2-0.1-0.4-0.3-0.8-0.4c-0.8-0.3-1.8-0.5-3-0.5c-2.2,0-4,0.9-4,2.5c0,1.7,2.2,2.7,4.7,3.8
			c3,1.4,5.9,3,5.9,6.4c0,4.3-3.5,6.7-8.7,6.7C407.9,329.9,404.9,328.7,403.3,327z"/>
		<path class="st2" d="M434.5,325.3h3.8l5.9-25.3h-4.3l0.9-4.1h13.4l-1,4.1h-4.3l-5.9,25.4h10.5l1.2-5h4.4l-2.1,9h-23.4L434.5,325.3
			z"/>
		<path class="st2" d="M463,325.4c0-0.7,0.2-1.6,0.4-2.4l3.1-11.7h-4.1l1-3.8h8.6l-4.1,15.6c-0.3,0.9-0.4,1.7-0.4,2.2
			c0,1,0.5,1.5,1.3,1.5c1,0,1.9-0.8,3-3.6l2,0.7c-1.3,4.4-3.5,5.9-6.2,5.9C464.6,329.8,463,328,463,325.4z M467.3,300.8
			c0-1.6,1.3-3,3-3c1.6,0,3,1.3,3,3s-1.4,3-3,3C468.6,303.7,467.3,302.4,467.3,300.8z"/>
		<path class="st2" d="M476.5,337.1c-1-1-1.3-1.8-1.3-2.9c0-1.8,1.2-3,2.8-3c1.6,0,2.7,1.3,2.7,2.8c0,0.5-0.1,1-0.3,1.3
			c0.7,0.4,2,0.8,3.7,0.8c2.1,0,3.6-0.6,4.9-1.8c1.2-1.1,1.9-2.9,2.5-5.3l1-4.1c-1.9,2.7-4.5,4.3-7.6,4.3c-5,0-8-3.5-8-8.8
			c0-7.1,5-13.3,11.6-13.3c3.8,0,6,2.6,6.8,5l1.4-4.7h4.1l-5.3,22.7c-0.7,3-1.6,5.2-3.2,6.8c-1.9,1.9-4.5,2.8-8.1,2.8
			C481.1,339.7,477.8,338.4,476.5,337.1z M494.3,316.2c0-3.3-2.1-5.3-5.3-5.3c-4.3,0-7.6,4.1-7.6,9.1c0,3.3,2.1,5.3,5.2,5.3
			C491,325.4,494.3,321,494.3,316.2z"/>
		<path class="st2" d="M510.1,295.9h-4.1l1-3.8h8.4l-4.6,19.7c1.6-2.5,4.2-4.6,7.1-4.6c3.4,0,6.1,2.3,6.1,6.2c0,1.1-0.2,2.3-0.6,3.6
			l-1.8,6.5c-0.2,0.7-0.3,1.3-0.3,1.7c0,1,0.5,1.6,1.3,1.6c0.9,0,1.8-0.8,2.9-3.6l2,0.7c-1.2,4-3.2,5.9-6,5.9c-3,0-4.7-1.8-4.7-4.4
			c0-0.7,0.2-1.6,0.4-2.5l1.8-6.7c0.3-0.9,0.3-1.5,0.3-2.2c0-1.9-1.4-3.2-3.4-3.2c-2.7,0-5.4,2.2-6.4,6.8l-2.8,11.8h-4.5
			L510.1,295.9z"/>
		<path class="st2" d="M538.7,311.2l-2.8,11.3c-0.2,0.8-0.3,1.5-0.3,1.9c0,1.2,0.7,1.9,1.7,1.9c1.2,0,2.2-0.5,4.4-1.9l1.6,2.1
			c-2.9,2.5-5.3,3.3-7.4,3.3c-2.7,0-4.8-1.5-4.8-4.6c0-0.8,0.2-1.6,0.4-2.7l2.8-11.3h-4l0.9-3.8h4l1.3-5l4.9-1.7l-1.7,6.7h6.7
			l-1,3.8H538.7z"/>
	</g>
</g>
</svg>
